<svg xmlns="http://www.w3.org/2000/svg" height="24" viewBox="0 -960 960 960" width="24"><path d="M200-400v-40h280v40H200Zm0-160v-40h440v40H200Zm0-160v-40h440v40H200Zm329.231 520v-88.385l213.307-212.307q5.924-5.923 12.223-8t12.598-2.077q6.872 0 13.505 2.577 6.632 2.577 12.059 7.73l37 37.77q4.923 5.923 7.5 12.307Q840-444 840-437.615q0 6.384-2.461 12.884-2.462 6.5-7.616 12.424L617.616-200h-88.385Zm275.384-237.615-37-37.77 37 37.77Zm-240 202.23h38l138.693-138.922-18.77-19-18.23-19.539-139.693 139.461v38Zm157.923-157.922-18.23-19.539 37 38.539-18.77-19Z"/></svg>